<?xml version="1.0" standalone="no"?>
<!DOCTYPE svg PUBLIC "-//W3C//DTD SVG 20010904//EN"
 "http://www.w3.org/TR/2001/REC-SVG-20010904/DTD/svg10.dtd">
<svg version="1.0" xmlns="http://www.w3.org/2000/svg"
 width="512.000000pt" height="512.000000pt" viewBox="0 0 512.000000 512.000000"
 preserveAspectRatio="xMidYMid meet">

<g transform="translate(0.000000,512.000000) scale(0.100000,-0.100000)"
fill="#81C341" stroke="none">
<path d="M315 4206 c-123 -31 -244 -133 -284 -241 -12 -31 -21 -61 -21 -68 1
-14 2526 -1422 2551 -1422 25 0 2549 1408 2549 1422 0 7 -9 37 -21 68 -42 112
-169 217 -297 244 -80 17 -4408 14 -4477 -3z"/>
<path d="M0 2418 c0 -731 4 -1179 10 -1206 38 -164 175 -288 345 -312 96 -13
4314 -13 4410 0 170 24 307 148 345 312 12 53 14 2371 2 2366 -5 -1 -572 -317
-1259 -700 -1095 -611 -1256 -698 -1292 -698 -37 0 -199 88 -1297 700 -691
385 -1258 700 -1260 700 -2 0 -4 -523 -4 -1162z"/>
</g>
</svg>
