<?xml version="1.0" standalone="no"?>
<!DOCTYPE svg PUBLIC "-//W3C//DTD SVG 20010904//EN"
 "http://www.w3.org/TR/2001/REC-SVG-20010904/DTD/svg10.dtd">
<svg version="1.0" xmlns="http://www.w3.org/2000/svg"
 width="512.000000pt" height="512.000000pt" viewBox="0 0 512.000000 512.000000"
 preserveAspectRatio="xMidYMid meet">

<g transform="translate(0.000000,512.000000) scale(0.100000,-0.100000)"
fill="#81C341" stroke="none">
<path d="M2330 5105 c-348 -43 -671 -178 -955 -400 -100 -78 -274 -256 -348
-356 -361 -490 -471 -1077 -318 -1704 163 -663 619 -1420 1304 -2164 187 -203
444 -451 484 -468 42 -17 85 -17 130 2 42 18 418 391 584 580 629 715 1038
1409 1194 2026 161 634 51 1240 -314 1729 -69 93 -233 264 -326 339 -402 328
-922 479 -1435 416z m340 -845 c124 -14 229 -44 335 -94 238 -112 409 -283
520 -519 192 -407 102 -894 -223 -1209 -322 -311 -790 -392 -1188 -204 -121
58 -203 114 -296 204 -325 315 -415 802 -223 1209 176 372 538 609 950 622 22
0 78 -4 125 -9z"/>
</g>
</svg>
