<?xml version="1.0" standalone="no"?>
<!DOCTYPE svg PUBLIC "-//W3C//DTD SVG 20010904//EN"
 "http://www.w3.org/TR/2001/REC-SVG-20010904/DTD/svg10.dtd">
<svg version="1.0" xmlns="http://www.w3.org/2000/svg"
 width="512.000000pt" height="512.000000pt" viewBox="0 0 512.000000 512.000000"
 preserveAspectRatio="xMidYMid meet">

<g transform="translate(0.000000,512.000000) scale(0.100000,-0.100000)"
fill="#81C341" stroke="none">
<path d="M2327 5109 c-325 -31 -613 -114 -906 -260 -260 -129 -450 -266 -665
-477 -205 -203 -353 -408 -485 -673 -313 -628 -355 -1340 -120 -2004 88 -246
263 -556 423 -750 241 -290 518 -510 847 -674 390 -194 805 -285 1229 -268
381 16 712 100 1049 268 406 201 743 499 996 879 87 131 217 387 270 534 175
478 200 1028 70 1523 -49 186 -92 300 -185 488 -130 263 -267 454 -478 669
-531 538 -1297 817 -2045 745z m-650 -1219 c32 -12 517 -491 539 -532 34 -65
27 -77 -155 -262 -92 -94 -176 -186 -185 -203 -38 -75 -30 -164 21 -241 167
-248 607 -673 810 -782 46 -25 137 -27 191 -5 23 10 101 79 202 180 167 166
193 184 248 170 34 -8 525 -494 548 -543 30 -64 -4 -118 -163 -257 -170 -149
-359 -212 -553 -185 -261 36 -690 248 -1000 496 -116 93 -400 378 -492 494
-208 261 -388 594 -454 835 -42 155 -24 317 53 475 42 85 59 108 176 227 71
73 139 134 151 136 11 2 24 5 28 6 4 0 19 -4 35 -9z"/>
</g>
</svg>
